<?xml version="1.0" standalone="no"?><!DOCTYPE svg PUBLIC "-//W3C//DTD SVG 1.1//EN" "http://www.w3.org/Graphics/SVG/1.1/DTD/svg11.dtd"><svg t="1626970644707" class="icon" viewBox="0 0 1024 1024" version="1.1" xmlns="http://www.w3.org/2000/svg" p-id="571" xmlns:xlink="http://www.w3.org/1999/xlink" width="16" height="16"><defs><style type="text/css">@font-face { font-family: feedback-iconfont; src: url("//at.alicdn.com/t/font_1031158_1uhr8ri0pk5.eot?#iefix") format("embedded-opentype"), url("//at.alicdn.com/t/font_1031158_1uhr8ri0pk5.woff2") format("woff2"), url("//at.alicdn.com/t/font_1031158_1uhr8ri0pk5.woff") format("woff"), url("//at.alicdn.com/t/font_1031158_1uhr8ri0pk5.ttf") format("truetype"), url("//at.alicdn.com/t/font_1031158_1uhr8ri0pk5.svg#iconfont") format("svg"); }
</style></defs><path d="M56.987313 512.368924c0-81.04038 118.728651-398.392298 454.906709-398.392298s454.906709 317.351918 454.906708 398.392298c0 81.143359-118.729651 398.444288-454.906708 398.444288s-454.906709-317.300929-454.906709-398.444288z m85.310505 0c0 31.965445 80.449502 313.09979 369.596204 313.09979s369.646194-281.133346 369.646193-313.09979c0-31.863466-80.500491-313.048801-369.646193-313.0488S142.297818 480.50146 142.297818 512.368924z m199.025184 0c0-94.103701 76.45732-170.738985 170.57102-170.738985 94.06271 0 170.622009 76.635284 170.622009 170.739985 0 94.20568-76.559299 170.789975-170.622009 170.789975-94.113699 0-170.57102-76.584294-170.57102-170.790975z m85.310505 0a85.28251 85.28251 0 1 0 85.260515-85.343498 85.418483 85.418483 0 0 0-85.260515 85.343498z" p-id="572"></path></svg>